<svg width="38" height="38" viewBox="0 0 38 38" fill="none" xmlns="http://www.w3.org/2000/svg">
<path d="M36.3906 31.5621H6.43799V1.60949C6.43799 1.18263 6.60756 0.773246 6.9094 0.471408C7.21123 0.169571 7.62061 0 8.04748 0C8.47434 0 8.88372 0.169571 9.18556 0.471408C9.48739 0.773246 9.65697 1.18263 9.65697 1.60949V28.3431H36.3906C36.8174 28.3431 37.2268 28.5127 37.5286 28.8145C37.8305 29.1163 38.0001 29.5257 38.0001 29.9526C38.0001 30.3794 37.8305 30.7888 37.5286 31.0907C37.2268 31.3925 36.8174 31.5621 36.3906 31.5621Z" fill="white"/>
<path d="M1.60949 6.43799H4.82847V9.65697H1.60949C1.18263 9.65697 0.773246 9.48739 0.471408 9.18556C0.169571 8.88372 0 8.47434 0 8.04748C0 7.62061 0.169571 7.21123 0.471408 6.9094C0.773246 6.60756 1.18263 6.43799 1.60949 6.43799Z" fill="white"/>
<path d="M31.5621 6.43799V26.7336H28.3432V9.65697H11.2665V6.43799H31.5621Z" fill="white"/>
<path d="M28.3431 33.1715H31.5621V36.3905C31.5621 36.8173 31.3925 37.2267 31.0907 37.5286C30.7889 37.8304 30.3795 38 29.9526 38C29.5258 38 29.1164 37.8304 28.8145 37.5286C28.5127 37.2267 28.3431 36.8173 28.3431 36.3905V33.1715Z" fill="white"/>
</svg>
