<svg width="40" height="40" viewBox="0 0 40 40" fill="none" xmlns="http://www.w3.org/2000/svg">
<path d="M17.51 11.75V12.25H18.01H33.49C33.4922 12.25 33.4931 12.2503 33.4936 12.2506C33.4944 12.2509 33.4957 12.2517 33.497 12.253C33.4983 12.2543 33.4991 12.2556 33.4994 12.2564C33.4997 12.2569 33.5 12.2578 33.5 12.26V14.75H6.5V8.26C6.5 8.25783 6.50034 8.25695 6.50056 8.25643C6.50092 8.25559 6.50167 8.25431 6.50299 8.25299C6.50431 8.25167 6.50559 8.25092 6.50643 8.25056C6.50695 8.25034 6.50783 8.25 6.51 8.25H17.5C17.5019 8.25 17.5027 8.2503 17.5033 8.25053C17.5042 8.25091 17.5055 8.25171 17.5069 8.25311C17.5083 8.25451 17.5091 8.25584 17.5095 8.25668C17.5097 8.25719 17.51 8.25798 17.51 8.26V11.75ZM33.49 10.25H19.51V8.26C19.51 7.15147 18.6093 6.25 17.5 6.25H6.51C5.40086 6.25 4.5 7.15086 4.5 8.26V15.25V16.25V31.74C4.5 32.8485 5.40075 33.75 6.51 33.75H33.49C34.5985 33.75 35.5 32.8493 35.5 31.74V16.25V15.25V12.26C35.5 11.1509 34.5991 10.25 33.49 10.25ZM33.49 31.75H6.51C6.50783 31.75 6.50695 31.7497 6.50643 31.7494C6.50559 31.7491 6.50431 31.7483 6.50299 31.747C6.50167 31.7457 6.50092 31.7444 6.50056 31.7436C6.50034 31.7431 6.5 31.7422 6.5 31.74V16.75H33.5V31.74C33.5 31.7422 33.4997 31.7431 33.4994 31.7436C33.4991 31.7444 33.4983 31.7457 33.497 31.747C33.4957 31.7483 33.4944 31.7491 33.4936 31.7494C33.4931 31.7497 33.4922 31.75 33.49 31.75Z" fill="white" stroke="white"/>
</svg>
