<svg width="35" height="16" viewBox="0 0 35 16" fill="none" xmlns="http://www.w3.org/2000/svg">
<path d="M34.7344 4.30078C34.7344 1.79883 33.3535 0.445312 30.8379 0.445312H4.36914C1.83984 0.445312 0.486328 1.79883 0.486328 4.30078L0.5 11.9707C0.5 14.4727 1.85352 15.8262 4.38281 15.8262H30.8516C33.3672 15.8262 34.7344 14.4727 34.7344 11.9707V4.30078ZM32.123 4.72461V11.5469C32.123 12.6406 31.5215 13.2285 30.4688 13.2285H4.72461C3.69922 13.2285 3.09766 12.6406 3.09766 11.5469V4.72461C3.09766 3.63086 3.69922 3.04297 4.73828 3.04297H4.80664V9.52344C4.80664 9.86523 5.08008 10.125 5.42188 10.125C5.77734 10.1113 6.02344 9.86523 6.02344 9.50977V3.04297H7.24023V7.25391C7.24023 7.5957 7.52734 7.85547 7.85547 7.8418C8.22461 7.8418 8.45703 7.5957 8.45703 7.24023L8.4707 3.04297H9.67383V7.25391C9.67383 7.5957 9.96094 7.85547 10.2891 7.8418C10.6582 7.8418 10.8906 7.5957 10.8906 7.24023L10.9043 3.04297H12.1074V7.25391C12.1074 7.5957 12.3945 7.85547 12.7227 7.8418C13.0781 7.8418 13.3242 7.5957 13.3242 7.24023L13.3379 3.04297H14.5547V7.25391C14.5547 7.5957 14.8281 7.85547 15.1699 7.8418C15.5254 7.8418 15.7715 7.5957 15.7715 7.24023L15.7852 3.04297H17.002V9.52344C17.002 9.86523 17.2754 10.125 17.6172 10.125C17.9727 10.1113 18.2188 9.86523 18.2188 9.50977L18.2324 3.04297H19.4355V7.25391C19.4355 7.5957 19.709 7.85547 20.0508 7.8418C20.4062 7.8418 20.6523 7.5957 20.6523 7.24023V3.04297H21.8828V7.25391C21.8828 7.5957 22.1562 7.85547 22.4844 7.8418C22.8535 7.8418 23.0859 7.5957 23.0859 7.24023L23.0996 3.04297H24.3027V7.25391C24.3027 7.5957 24.5898 7.85547 24.918 7.8418C25.2871 7.8418 25.5195 7.5957 25.5195 7.24023L25.5332 3.04297H26.75V7.25391C26.75 7.5957 27.0234 7.85547 27.3652 7.8418C27.7207 7.8418 27.9668 7.5957 27.9668 7.24023L27.9805 3.04297H29.1973V9.52344C29.1973 9.86523 29.4707 10.125 29.7988 10.125C30.168 10.1113 30.4141 9.86523 30.4141 9.50977V3.04297H30.4824C31.5215 3.04297 32.123 3.63086 32.123 4.72461Z" fill="white"/>
</svg>
