<svg width="40" height="40" viewBox="0 0 40 40" fill="none" xmlns="http://www.w3.org/2000/svg">
<path d="M39.5 4.39357H39.5L39.5 4.3894C39.4821 2.25339 37.7683 0.5 35.6342 0.5H32.4636C31.8623 0.5 31.3779 0.997167 31.3779 1.5919C31.3779 2.18664 31.8623 2.68381 32.4636 2.68381H35.642C36.5635 2.68381 37.3286 3.44936 37.3286 4.39357V7.60563C37.3286 8.20037 37.813 8.69754 38.4143 8.69754C39.0155 8.69754 39.5 8.20037 39.5 7.60563V4.39357Z" fill="white" stroke="white"/>
<path d="M7.5364 0.5H4.35801C2.2261 0.5 0.5 2.252 0.5 4.39357V7.60563C0.5 8.20037 0.984421 8.69754 1.5857 8.69754C2.18698 8.69754 2.6714 8.20037 2.6714 7.60563V4.39357C2.6714 3.44936 3.43647 2.68381 4.35801 2.68381H7.5364C8.13768 2.68381 8.6221 2.18664 8.6221 1.5919C8.6221 0.997167 8.13768 0.5 7.5364 0.5Z" fill="white" stroke="white"/>
<path d="M38.4065 31.3026C37.8052 31.3026 37.3208 31.7998 37.3208 32.3945V35.6066C37.3208 36.5508 36.5557 37.3163 35.6342 37.3163H32.4636C31.8623 37.3163 31.3779 37.8135 31.3779 38.4082C31.3779 39.003 31.8623 39.5001 32.4636 39.5001H35.6342C37.7661 39.5001 39.4922 37.7481 39.4922 35.6066V32.4024C39.4922 31.8041 39.012 31.3026 38.4065 31.3026Z" fill="white" stroke="white"/>
<path d="M7.5364 37.3163H4.35801C3.43647 37.3163 2.6714 36.5507 2.6714 35.6065V32.4023C2.6714 31.8076 2.18698 31.3104 1.5857 31.3104C0.993146 31.3104 0.5 31.791 0.5 32.3944V35.6065C0.5 37.7481 2.2261 39.5001 4.35801 39.5001H7.5364C8.13768 39.5001 8.6221 39.0029 8.6221 38.4082C8.6221 37.8134 8.13768 37.3163 7.5364 37.3163Z" fill="white" stroke="white"/>
<path d="M14.7119 19.9097C14.7119 20.9595 14.5264 21.8799 14.1553 22.6709C13.7842 23.4619 13.252 24.0723 12.5586 24.502C11.8701 24.9316 11.0791 25.1465 10.1855 25.1465C9.30176 25.1465 8.51318 24.9341 7.81982 24.5093C7.12646 24.0845 6.58936 23.479 6.2085 22.6929C5.82764 21.9019 5.63477 20.9937 5.62988 19.9683V19.4409C5.62988 18.3911 5.81787 17.4683 6.19385 16.6724C6.57471 15.8716 7.10938 15.2588 7.79785 14.834C8.49121 14.4043 9.28223 14.1895 10.1709 14.1895C11.0596 14.1895 11.8481 14.4043 12.5366 14.834C13.23 15.2588 13.7646 15.8716 14.1406 16.6724C14.5215 17.4683 14.7119 18.3887 14.7119 19.4336V19.9097ZM12.4854 19.4263C12.4854 18.3081 12.2852 17.4585 11.8848 16.8774C11.4844 16.2964 10.9131 16.0059 10.1709 16.0059C9.43359 16.0059 8.86475 16.2939 8.46436 16.8701C8.06396 17.4414 7.86133 18.2812 7.85645 19.3896V19.9097C7.85645 20.9985 8.05664 21.8433 8.45703 22.4438C8.85742 23.0444 9.43359 23.3447 10.1855 23.3447C10.9229 23.3447 11.4893 23.0566 11.8848 22.4805C12.2803 21.8994 12.4805 21.0547 12.4854 19.9463V19.4263ZM24.6802 21.4478C24.5972 22.5952 24.1724 23.4985 23.4058 24.1577C22.644 24.8169 21.6382 25.1465 20.3882 25.1465C19.021 25.1465 17.9443 24.6875 17.1582 23.7695C16.377 22.8467 15.9863 21.582 15.9863 19.9756V19.3237C15.9863 18.2983 16.167 17.395 16.5283 16.6138C16.8896 15.8325 17.4048 15.2344 18.0737 14.8193C18.7476 14.3994 19.5288 14.1895 20.4175 14.1895C21.6479 14.1895 22.6392 14.519 23.3911 15.1782C24.1431 15.8374 24.5776 16.7627 24.6948 17.9541H22.4976C22.4438 17.2656 22.251 16.7676 21.9189 16.46C21.5918 16.1475 21.0913 15.9912 20.4175 15.9912C19.6851 15.9912 19.1357 16.2549 18.7695 16.7822C18.4082 17.3047 18.2227 18.1177 18.2129 19.2212V20.0269C18.2129 21.1792 18.3862 22.0215 18.7329 22.5537C19.0845 23.0859 19.6362 23.3521 20.3882 23.3521C21.0669 23.3521 21.5723 23.1982 21.9043 22.8906C22.2412 22.5781 22.4341 22.0972 22.4829 21.4478H24.6802ZM30.0708 21.0962H28.3203V25H26.123V14.3359H30.0854C31.3452 14.3359 32.3169 14.6167 33.0005 15.1782C33.6841 15.7397 34.0259 16.5332 34.0259 17.5586C34.0259 18.2861 33.8672 18.894 33.5498 19.3823C33.2373 19.8657 32.7612 20.2515 32.1216 20.5396L34.4287 24.8975V25H32.0703L30.0708 21.0962ZM28.3203 19.3164H30.0928C30.6445 19.3164 31.0718 19.1772 31.3745 18.8989C31.6772 18.6157 31.8286 18.2275 31.8286 17.7344C31.8286 17.2314 31.6846 16.8359 31.3965 16.5479C31.1133 16.2598 30.6763 16.1157 30.0854 16.1157H28.3203V19.3164Z" fill="white"/>
</svg>
