<svg width="40" height="40" viewBox="0 0 40 40" fill="none" xmlns="http://www.w3.org/2000/svg">
<g clip-path="url(#clip0)">
<path fill-rule="evenodd" clip-rule="evenodd" d="M20.5613 0.287665L27.9574 6.93803C28.4646 7.39483 28.4646 8.14146 27.9574 8.59983C27.7118 8.82193 27.3862 8.94322 27.0409 8.94322C26.6939 8.94164 26.3718 8.82193 26.1262 8.59983L21.1539 4.13108V27.9539C21.1539 28.6029 20.572 29.129 19.8566 29.129C19.1412 29.129 18.5593 28.6029 18.5593 27.9539V4.18778L13.6475 8.59983C13.1563 9.04403 12.3039 9.04245 11.8163 8.6014C11.3073 8.14145 11.3073 7.39483 11.8163 6.93803L19.2124 0.287665C19.6395 -0.0966757 20.1378 -0.0951005 20.5613 0.287665ZM33.7735 14.9979V37.222C33.7735 38.7555 32.5293 40 30.9962 40H8.77735C7.24267 40 6 38.7555 6 37.222V14.9979C6 13.4628 7.24267 12.2199 8.77735 12.2199H14.713V14.601H9.83434C9.03128 14.601 8.38059 15.2519 8.38059 16.0551V36.1648C8.38059 36.9664 9.03128 37.6189 9.83434 37.6189H29.9392C30.7423 37.6189 31.393 36.9664 31.393 36.1648V16.0551C31.393 15.2519 30.7423 14.601 29.9392 14.601H25.0447V12.2199H30.9962C32.5293 12.2199 33.7735 13.4628 33.7735 14.9979Z" fill="white"/>
<path d="M27.9574 6.93803L28.292 6.5665L28.2917 6.56623L27.9574 6.93803ZM27.9574 8.59983L27.6222 8.22888L27.622 8.22899L27.9574 8.59983ZM27.0409 8.94322L27.0387 9.44322H27.0409V8.94322ZM26.1262 8.59983L26.4616 8.22898L26.4604 8.22795L26.1262 8.59983ZM21.1539 4.13108L21.4882 3.7592L20.6539 3.00945V4.13108H21.1539ZM18.5593 4.18778H19.0593V3.06655L18.2251 3.81581L18.5593 4.18778ZM13.6475 8.59983L13.3134 8.22786L13.3121 8.22899L13.6475 8.59983ZM11.8163 8.6014L12.1517 8.23059L12.1515 8.23044L11.8163 8.6014ZM11.8163 6.93803L12.1503 7.31014L12.1506 7.30983L11.8163 6.93803ZM19.2124 0.287665L19.5467 0.659466L19.5468 0.659337L19.2124 0.287665ZM14.713 12.2199H15.213V11.7199H14.713V12.2199ZM14.713 14.601V15.101H15.213V14.601H14.713ZM25.0447 14.601H24.5447V15.101H25.0447V14.601ZM25.0447 12.2199V11.7199H24.5447V12.2199H25.0447ZM20.227 0.659465L27.6231 7.30983L28.2917 6.56623L20.8956 -0.0841346L20.227 0.659465ZM27.6228 7.30955C27.9091 7.56741 27.9101 7.96868 27.6222 8.22888L28.2927 8.97078C29.0192 8.31423 29.0201 7.22224 28.292 6.5665L27.6228 7.30955ZM27.622 8.22899C27.4734 8.36339 27.2692 8.44322 27.0409 8.44322V9.44322C27.5031 9.44322 27.9502 9.28046 28.2928 8.97067L27.622 8.22899ZM27.0432 8.44322C26.8109 8.44217 26.6098 8.36301 26.4616 8.22899L25.7908 8.97067C26.1338 9.28085 26.5769 9.44111 27.0387 9.44321L27.0432 8.44322ZM26.4604 8.22795L21.4882 3.7592L20.8197 4.50296L25.792 8.97171L26.4604 8.22795ZM20.6539 4.13108V27.9539H21.6539V4.13108H20.6539ZM20.6539 27.9539C20.6539 28.2811 20.3439 28.629 19.8566 28.629V29.629C20.8001 29.629 21.6539 28.9247 21.6539 27.9539H20.6539ZM19.8566 28.629C19.3693 28.629 19.0593 28.2811 19.0593 27.9539H18.0593C18.0593 28.9247 18.9131 29.629 19.8566 29.629V28.629ZM19.0593 27.9539V4.18778H18.0593V27.9539H19.0593ZM18.2251 3.81581L13.3134 8.22786L13.9816 8.9718L18.8934 4.55975L18.2251 3.81581ZM13.3121 8.22899C13.0114 8.50099 12.4489 8.49938 12.1517 8.23059L11.4809 8.97222C12.1589 9.58553 13.3013 9.58707 13.9829 8.97067L13.3121 8.22899ZM12.1515 8.23044C11.8615 7.96833 11.8634 7.56757 12.1503 7.31014L11.4823 6.56592C10.7512 7.22208 10.7532 8.31458 11.4811 8.97237L12.1515 8.23044ZM12.1506 7.30983L19.5467 0.659465L18.8781 -0.0841346L11.482 6.56623L12.1506 7.30983ZM19.5468 0.659337C19.6872 0.532984 19.8036 0.499928 19.8878 0.5C19.9719 0.500072 20.0874 0.533332 20.2261 0.658627L20.8966 -0.0832964C20.6117 -0.340767 20.2663 -0.499677 19.8886 -0.5C19.5109 -0.500322 19.1646 -0.341994 18.8779 -0.084006L19.5468 0.659337ZM33.2735 14.9979V37.222H34.2735V14.9979H33.2735ZM33.2735 37.222C33.2735 38.4795 32.253 39.5 30.9962 39.5V40.5C32.8055 40.5 34.2735 39.0315 34.2735 37.222H33.2735ZM30.9962 39.5H8.77735V40.5H30.9962V39.5ZM8.77735 39.5C7.51911 39.5 6.5 38.4796 6.5 37.222H5.5C5.5 39.0313 6.96623 40.5 8.77735 40.5V39.5ZM6.5 37.222V14.9979H5.5V37.222H6.5ZM6.5 14.9979C6.5 13.7389 7.51892 12.7199 8.77735 12.7199V11.7199C6.96641 11.7199 5.5 13.1868 5.5 14.9979H6.5ZM8.77735 12.7199H14.713V11.7199H8.77735V12.7199ZM14.213 12.2199V14.601H15.213V12.2199H14.213ZM14.713 14.101H9.83434V15.101H14.713V14.101ZM9.83434 14.101C8.75503 14.101 7.88059 14.9759 7.88059 16.0551H8.88059C8.88059 15.5279 9.30754 15.101 9.83434 15.101V14.101ZM7.88059 16.0551V36.1648H8.88059V16.0551H7.88059ZM7.88059 36.1648C7.88059 37.2421 8.75467 38.1189 9.83434 38.1189V37.1189C9.30789 37.1189 8.88059 36.6908 8.88059 36.1648H7.88059ZM9.83434 38.1189H29.9392V37.1189H9.83434V38.1189ZM29.9392 38.1189C31.0189 38.1189 31.893 37.2421 31.893 36.1648H30.893C30.893 36.6908 30.4656 37.1189 29.9392 37.1189V38.1189ZM31.893 36.1648V16.0551H30.893V36.1648H31.893ZM31.893 16.0551C31.893 14.9759 31.0185 14.101 29.9392 14.101V15.101C30.466 15.101 30.893 15.5279 30.893 16.0551H31.893ZM29.9392 14.101H25.0447V15.101H29.9392V14.101ZM25.5447 14.601V12.2199H24.5447V14.601H25.5447ZM25.0447 12.7199H30.9962V11.7199H25.0447V12.7199ZM30.9962 12.7199C32.2532 12.7199 33.2735 13.7391 33.2735 14.9979H34.2735C34.2735 13.1866 32.8054 11.7199 30.9962 11.7199V12.7199Z" fill="white"/>
</g>
<defs>
<clipPath id="clip0">
<rect width="40" height="40" fill="white"/>
</clipPath>
</defs>
</svg>
