<svg width="80" height="80" viewBox="0 0 80 80" fill="none" xmlns="http://www.w3.org/2000/svg">
<circle cx="40" cy="40" r="40" fill="url(#paint0_linear)"/>
<g clip-path="url(#clip0)">
<path fill-rule="evenodd" clip-rule="evenodd" d="M40.4016 22.2482L46.0474 27.9853C46.4346 28.3794 46.4346 29.0235 46.0474 29.4189C45.86 29.6105 45.6114 29.7151 45.3478 29.7151C45.0829 29.7138 44.837 29.6105 44.6496 29.4189L40.8539 25.5638V46.1153C40.8539 46.6751 40.4097 47.129 39.8636 47.129C39.3175 47.129 38.8733 46.6751 38.8733 46.1153V25.6127L35.1238 29.4189C34.7489 29.8021 34.0982 29.8007 33.726 29.4203C33.3374 29.0235 33.3374 28.3794 33.726 27.9853L39.3718 22.2482C39.6979 21.9166 40.0782 21.918 40.4016 22.2482ZM51.7735 36.5979V55.622C51.7735 56.9347 50.7085 58 49.3962 58H30.3774C29.0637 58 28 56.9347 28 55.622V36.5979C28 35.2839 29.0637 34.2199 30.3774 34.2199H35.4581V36.2582H31.2821C30.5947 36.2582 30.0377 36.8153 30.0377 37.5029V54.717C30.0377 55.4032 30.5947 55.9617 31.2821 55.9617H48.4914C49.1788 55.9617 49.7358 55.4032 49.7358 54.717V37.5029C49.7358 36.8153 49.1788 36.2582 48.4914 36.2582H44.3019V34.2199H49.3962C50.7085 34.2199 51.7735 35.2839 51.7735 36.5979Z" fill="white"/>
<path d="M46.0474 27.9853L46.1366 27.8977L46.1365 27.8976L46.0474 27.9853ZM46.0474 29.4189L45.9581 29.3314L45.9581 29.3315L46.0474 29.4189ZM45.3478 29.7151L45.3472 29.8401H45.3478V29.7151ZM44.6496 29.4189L44.7389 29.3315L44.7386 29.3312L44.6496 29.4189ZM40.8539 25.5638L40.943 25.4761L40.7289 25.2587V25.5638H40.8539ZM38.8733 25.6127H38.9983V25.3077L38.7842 25.525L38.8733 25.6127ZM35.1238 29.4189L35.0348 29.3312L35.0345 29.3315L35.1238 29.4189ZM33.726 29.4203L33.8153 29.3328L33.8153 29.3328L33.726 29.4203ZM33.726 27.9853L33.815 28.0731L33.815 28.073L33.726 27.9853ZM39.3718 22.2482L39.4609 22.3358L39.461 22.3358L39.3718 22.2482ZM35.4581 34.2199H35.5831V34.0949H35.4581V34.2199ZM35.4581 36.2582V36.3832H35.5831V36.2582H35.4581ZM44.3019 36.2582H44.1769V36.3832H44.3019V36.2582ZM44.3019 34.2199V34.0949H44.1769V34.2199H44.3019ZM40.3125 22.3358L45.9583 28.073L46.1365 27.8976L40.4907 22.1605L40.3125 22.3358ZM45.9583 28.0729C46.2976 28.4183 46.2978 28.9845 45.9581 29.3314L46.1368 29.5063C46.5714 29.0624 46.5716 28.3405 46.1366 27.8977L45.9583 28.0729ZM45.9581 29.3315C45.7939 29.4993 45.5774 29.5901 45.3478 29.5901V29.8401C45.6453 29.8401 45.926 29.7217 46.1368 29.5063L45.9581 29.3315ZM45.3485 29.5901C45.1169 29.5889 44.903 29.4992 44.7389 29.3315L44.5602 29.5063C44.7711 29.7218 45.0489 29.8386 45.3472 29.8401L45.3485 29.5901ZM44.7386 29.3312L40.943 25.4761L40.7649 25.6515L44.5605 29.5066L44.7386 29.3312ZM40.7289 25.5638V46.1153H40.9789V25.5638H40.7289ZM40.7289 46.1153C40.7289 46.6088 40.338 47.004 39.8636 47.004V47.254C40.4814 47.254 40.9789 46.7415 40.9789 46.1153H40.7289ZM39.8636 47.004C39.3892 47.004 38.9983 46.6088 38.9983 46.1153H38.7483C38.7483 46.7415 39.2458 47.254 39.8636 47.254V47.004ZM38.9983 46.1153V25.6127H38.7483V46.1153H38.9983ZM38.7842 25.525L35.0348 29.3312L35.2129 29.5066L38.9623 25.7004L38.7842 25.525ZM35.0345 29.3315C34.7086 29.6646 34.1385 29.6632 33.8153 29.3328L33.6366 29.5077C34.0579 29.9383 34.7892 29.9396 35.2132 29.5063L35.0345 29.3315ZM33.8153 29.3328C33.4742 28.9844 33.4746 28.4183 33.815 28.0731L33.6369 27.8975C33.2003 28.3404 33.2007 29.0625 33.6366 29.5077L33.8153 29.3328ZM33.815 28.073L39.4609 22.3358L39.2827 22.1605L33.6369 27.8976L33.815 28.073ZM39.461 22.3358C39.607 22.1873 39.7532 22.1249 39.8876 22.125C40.022 22.1251 40.1675 22.1878 40.3122 22.3356L40.4909 22.1607C40.3123 21.9783 40.106 21.8752 39.8878 21.875C39.6697 21.8748 39.4627 21.9775 39.2827 22.1605L39.461 22.3358ZM51.6485 36.5979V55.622H51.8985V36.5979H51.6485ZM51.6485 55.622C51.6485 56.8657 50.6394 57.875 49.3962 57.875V58.125C50.7776 58.125 51.8985 57.0037 51.8985 55.622H51.6485ZM49.3962 57.875H30.3774V58.125H49.3962V57.875ZM30.3774 57.875C29.1328 57.875 28.125 56.8657 28.125 55.622H27.875C27.875 57.0036 28.9946 58.125 30.3774 58.125V57.875ZM28.125 55.622V36.5979H27.875V55.622H28.125ZM28.125 36.5979C28.125 35.3529 29.1328 34.3449 30.3774 34.3449V34.0949C28.9946 34.0949 27.875 35.2149 27.875 36.5979H28.125ZM30.3774 34.3449H35.4581V34.0949H30.3774V34.3449ZM35.3331 34.2199V36.2582H35.5831V34.2199H35.3331ZM35.4581 36.1332H31.2821V36.3832H35.4581V36.1332ZM31.2821 36.1332C30.5256 36.1332 29.9127 36.7463 29.9127 37.5029H30.1627C30.1627 36.8843 30.6638 36.3832 31.2821 36.3832V36.1332ZM29.9127 37.5029V54.717H30.1627V37.5029H29.9127ZM29.9127 54.717C29.9127 55.4722 30.5256 56.0867 31.2821 56.0867V55.8367C30.6639 55.8367 30.1627 55.3343 30.1627 54.717H29.9127ZM31.2821 56.0867H48.4914V55.8367H31.2821V56.0867ZM48.4914 56.0867C49.248 56.0867 49.8608 55.4722 49.8608 54.717H49.6108C49.6108 55.3343 49.1097 55.8367 48.4914 55.8367V56.0867ZM49.8608 54.717V37.5029H49.6108V54.717H49.8608ZM49.8608 37.5029C49.8608 36.7463 49.2479 36.1332 48.4914 36.1332V36.3832C49.1098 36.3832 49.6108 36.8843 49.6108 37.5029H49.8608ZM48.4914 36.1332H44.3019V36.3832H48.4914V36.1332ZM44.4269 36.2582V34.2199H44.1769V36.2582H44.4269ZM44.3019 34.3449H49.3962V34.0949H44.3019V34.3449ZM49.3962 34.3449C50.6395 34.3449 51.6485 35.3529 51.6485 36.5979H51.8985C51.8985 35.2148 50.7775 34.0949 49.3962 34.0949V34.3449Z" fill="white"/>
</g>
<defs>
<linearGradient id="paint0_linear" x1="40" y1="0" x2="40" y2="80" gradientUnits="userSpaceOnUse">
<stop stop-color="#5383EC"/>
<stop offset="1" stop-color="#1B5CEB"/>
</linearGradient>
<clipPath id="clip0">
<path d="M22 22H58V58H22V22Z" fill="white"/>
</clipPath>
</defs>
</svg>
