<svg width="60" height="60" viewBox="0 0 60 60" fill="none" xmlns="http://www.w3.org/2000/svg">
<path d="M0.0292969 11.7188C0.0292969 5.26284 5.26284 0.0292969 11.7188 0.0292969H48.2812C54.7372 0.0292969 59.9707 5.26284 59.9707 11.7188V48.2812C59.9707 54.7372 54.7372 59.9707 48.2812 59.9707H11.7188C5.26284 59.9707 0.0292969 54.7372 0.0292969 48.2812V11.7188Z" fill="#09090B" stroke="white" stroke-width="0.0585938"/>
<path d="M18.6898 26.7406C16.6401 24.5097 16.787 21.0396 19.0178 18.9899L30.0107 8.88985C32.7126 6.40736 36.9154 6.58525 39.3979 9.28717C41.8804 11.9891 41.7025 16.1919 39.0006 18.6744L28.0077 28.7745C25.7768 30.8242 22.3068 30.6773 20.2571 28.4464L18.6898 26.7406Z" fill="white"/>
<path d="M25.1622 13.3302L41.7064 31.1938C43.765 33.4165 43.6319 36.8871 41.4092 38.9457L35.278 44.6241L18.7337 26.7605C16.6752 24.5378 16.8083 21.0672 19.031 19.0086L25.1622 13.3302Z" fill="white"/>
<path d="M41.7899 31.3045C43.862 33.5146 43.7501 36.986 41.54 39.058L28.851 50.9546C26.0665 53.5651 21.6929 53.4242 19.0823 50.6397C16.4717 47.8552 16.6127 43.4816 19.3972 40.871L36.088 25.2227L41.7899 31.3045Z" fill="white"/>
<path d="M29.7141 18.6252C27.0835 15.9946 27.0835 11.7296 29.7141 9.09903C32.3447 6.46845 36.6097 6.46845 39.2403 9.09903C41.8709 11.7296 41.8709 15.9946 39.2403 18.6252L34.4772 23.3883L29.7141 18.6252Z" fill="#FED32C"/>
<path d="M36.1376 25.1814L41.8585 31.3586C43.917 33.5813 43.784 37.0519 41.5613 39.1105L35.4301 44.7888L25.9818 34.5871L36.1376 25.1814Z" fill="#FED32C"/>
</svg>
