<svg width="40" height="40" viewBox="0 0 40 40" fill="none" xmlns="http://www.w3.org/2000/svg">
<path d="M2.1875 11.6875C2.84062 11.6875 3.375 11.1531 3.375 10.5V4.45562C3.375 3.86187 3.86187 3.375 4.45562 3.375H29.5H33.0625H35.5444C36.1381 3.375 36.625 3.86187 36.625 4.45562V10.5C36.625 11.1531 37.1594 11.6875 37.8125 11.6875C38.4656 11.6875 39 11.1531 39 10.5V4.45562C39 2.54969 37.4503 1 35.5444 1H33.0625H29.5H4.45562C2.54969 1 1 2.54969 1 4.45562V10.5C1 11.1531 1.53437 11.6875 2.1875 11.6875Z" fill="white" stroke="white"/>
<path d="M4.45562 39H29.5H33.0625H35.5444C37.4503 39 39 37.4503 39 35.5444V29.5C39 28.8469 38.4656 28.3125 37.8125 28.3125C37.1594 28.3125 36.625 28.8469 36.625 29.5V35.5444C36.625 36.1381 36.1381 36.625 35.5444 36.625H33.0625H29.5H4.45562C3.86187 36.625 3.375 36.1381 3.375 35.5444V29.5C3.375 28.8469 2.84062 28.3125 2.1875 28.3125C1.53437 28.3125 1 28.8469 1 29.5V35.5444C1 37.4503 2.54969 39 4.45562 39Z" fill="white" stroke="white"/>
<path d="M2.1875 21.1875H37.8125C38.4656 21.1875 39 20.6531 39 20C39 19.3469 38.4656 18.8125 37.8125 18.8125H2.1875C1.53437 18.8125 1 19.3469 1 20C1 20.6531 1.53437 21.1875 2.1875 21.1875Z" fill="white" stroke="white"/>
</svg>
