<svg width="80" height="80" viewBox="0 0 80 80" fill="none" xmlns="http://www.w3.org/2000/svg">
<circle cx="40" cy="40" r="40" fill="url(#paint0_linear)"/>
<path d="M23.125 32.125C23.7437 32.125 24.25 31.6187 24.25 31V25.2737C24.25 24.7112 24.7112 24.25 25.2737 24.25H49H52.375H54.7262C55.2887 24.25 55.75 24.7112 55.75 25.2737V31C55.75 31.6187 56.2562 32.125 56.875 32.125C57.4938 32.125 58 31.6187 58 31V25.2737C58 23.4681 56.5319 22 54.7262 22H52.375H49H25.2737C23.4681 22 22 23.4681 22 25.2737V31C22 31.6187 22.5062 32.125 23.125 32.125Z" fill="white"/>
<path d="M25.2737 58H49H52.375H54.7262C56.5319 58 58 56.5319 58 54.7263V49C58 48.3812 57.4938 47.875 56.875 47.875C56.2562 47.875 55.75 48.3812 55.75 49V54.7263C55.75 55.2888 55.2887 55.75 54.7262 55.75H52.375H49H25.2737C24.7112 55.75 24.25 55.2888 24.25 54.7263V49C24.25 48.3812 23.7437 47.875 23.125 47.875C22.5062 47.875 22 48.3812 22 49V54.7263C22 56.5319 23.4681 58 25.2737 58Z" fill="white"/>
<path d="M23.125 41.125H56.875C57.4938 41.125 58 40.6187 58 40C58 39.3812 57.4938 38.875 56.875 38.875H23.125C22.5062 38.875 22 39.3812 22 40C22 40.6187 22.5062 41.125 23.125 41.125Z" fill="white"/>
<defs>
<linearGradient id="paint0_linear" x1="40" y1="0" x2="40" y2="80" gradientUnits="userSpaceOnUse">
<stop stop-color="#5383EC"/>
<stop offset="1" stop-color="#1B5CEB"/>
</linearGradient>
</defs>
</svg>
