<svg width="38" height="38" viewBox="0 0 38 38" fill="none" xmlns="http://www.w3.org/2000/svg">
<g clip-path="url(#clip0)">
<path d="M1.95547 27.9811L1.95529 27.979L0.898431 15.9049C0.809522 15.0562 0.982601 14.4395 1.30307 13.9483C1.6123 13.4743 2.05019 13.1334 2.45041 12.8218L2.46207 12.8127C2.46251 12.8124 2.46295 12.812 2.46339 12.8117C2.93039 12.4379 3.43468 12.0242 3.89439 11.3355C4.33864 10.67 4.74938 9.73445 5.02337 8.31388C4.05454 7.57328 3.67698 6.21531 4.26386 5.11397L5.20917 3.33999C5.82163 2.19062 7.40067 1.71662 8.54492 2.33845C8.54519 2.33859 8.54546 2.33874 8.54573 2.33888L21.0472 9.01901L21.0472 9.019L21.0489 9.01989C22.2765 9.68768 22.7453 11.2032 22.056 12.3813L21.1361 14.2197L21.1362 14.2197L21.1331 14.2254C20.8055 14.8402 20.3195 15.2527 19.6804 15.4445C19.1638 15.5995 18.6001 15.5481 18.0693 15.3509C17.0824 16.3515 16.5358 17.2119 16.222 17.9562C15.8964 18.7284 15.8152 19.3896 15.7638 19.9846L15.7642 19.9846L15.7624 19.9974C15.7554 20.0478 15.7485 20.0987 15.7416 20.15C15.6775 20.6252 15.6088 21.1342 15.4001 21.6082C15.1621 22.1487 14.7489 22.6346 13.9965 23.0278C13.9961 23.0281 13.9956 23.0283 13.9952 23.0285L3.42091 28.7096C3.08424 28.9077 2.6856 28.8519 2.4094 28.6639C2.37844 28.6577 2.35021 28.648 2.32599 28.6373C2.25891 28.6075 2.19864 28.5601 2.14807 28.5009C2.04627 28.3816 1.97726 28.2079 1.95547 27.9811ZM20.135 10.8382L20.1342 10.8378L7.66001 3.99188C7.65985 3.99179 7.65969 3.99171 7.65954 3.99162C7.58513 3.9512 7.52747 3.93193 7.47555 3.92514C7.42477 3.91851 7.36594 3.92204 7.28713 3.94568C7.20832 3.96933 7.15727 3.99877 7.11853 4.03226C7.07884 4.06658 7.04124 4.11454 7.00128 4.18953L6.05597 5.96351C5.92149 6.21587 6.00589 6.49714 6.25708 6.63378L6.2579 6.63423L18.7329 13.4806L18.748 13.4889L18.7619 13.4992C18.8346 13.5533 18.9481 13.5734 19.0782 13.5343C19.2071 13.4957 19.3252 13.4055 19.3908 13.2825L20.3361 11.5085C20.4706 11.2561 20.3862 10.9749 20.135 10.8382ZM2.9094 15.7167L2.90953 15.7182L3.69993 24.5064L7.30517 17.7408C7.10492 17.4855 6.95253 17.1783 6.87166 16.9087C6.68135 16.2744 6.72589 15.566 7.05758 14.9435C7.71995 13.7005 9.29957 13.2266 10.5368 13.8996C11.7726 14.5718 12.2496 16.1615 11.588 17.4031C11.2562 18.0257 10.6946 18.4543 10.064 18.6435C9.73559 18.7421 9.44019 18.7696 9.13828 18.7383L5.53151 25.5069L13.2114 21.3442C13.4237 21.179 13.5295 21.037 13.6069 20.8363C13.694 20.6107 13.7465 20.3105 13.8324 19.806C13.8367 19.7759 13.841 19.7453 13.8454 19.7143C13.9304 19.1146 14.0392 18.3469 14.3877 17.4448C14.7316 16.5549 15.3053 15.5416 16.3082 14.4168L6.8396 9.26612C6.47232 10.7613 5.95607 11.8194 5.40897 12.6009C4.82393 13.4366 4.21065 13.9455 3.7353 14.326C3.3526 14.6415 3.14145 14.8265 3.02254 15.015C2.9176 15.1814 2.87584 15.3673 2.9094 15.7167ZM9.75272 16.4096C9.88719 16.1572 9.78121 15.804 9.53001 15.6674C9.41573 15.6052 9.25171 15.5928 9.08579 15.6426C8.91987 15.6924 8.78978 15.793 8.7286 15.9078C8.66723 16.023 8.65543 16.1894 8.70612 16.3583C8.75449 16.5195 8.8491 16.6475 8.95726 16.713C9.06432 16.7468 9.22445 16.7438 9.38823 16.6871C9.5596 16.6277 9.69135 16.5248 9.75272 16.4096Z" fill="white" stroke="white" stroke-width="0.5"/>
<path d="M36.8867 20.3488H24.9623C22.3758 20.3488 20.2716 22.453 20.2716 25.0395C20.2716 27.6258 22.3758 29.73 24.9623 29.73C26.3209 29.73 27.4263 30.8353 27.4263 32.194C27.4263 33.5528 26.3209 34.6581 24.9623 34.6581H1.11328C0.498453 34.6581 0 35.1566 0 35.7714C0 36.3862 0.498453 36.8847 1.11328 36.8847H24.9623C27.5487 36.8847 29.6528 34.7804 29.6528 32.194C29.6528 29.6076 27.5487 27.5034 24.9623 27.5034C23.6036 27.5034 22.4982 26.398 22.4982 25.0395C22.4982 23.6807 23.6036 22.5753 24.9623 22.5753H36.8867C37.5015 22.5753 38 22.0769 38 21.462C38 20.8472 37.5015 20.3488 36.8867 20.3488Z" fill="white"/>
</g>
<defs>
<clipPath id="clip0">
<rect width="38" height="38" fill="white"/>
</clipPath>
</defs>
</svg>
