<svg width="81" height="80" viewBox="0 0 81 80" fill="none" xmlns="http://www.w3.org/2000/svg">
<circle cx="40.5078" cy="40" r="40" fill="url(#paint0_linear)"/>
<path d="M49.5514 30.2436C48.9405 26.0982 45.4496 23 41.1733 23C38.0751 23 35.1951 24.7455 33.7551 27.4509C33.406 27.3636 33.0569 27.32 32.6642 27.32C30.1769 27.32 28.1696 29.3273 28.1696 31.8145C28.1696 32.2073 28.2133 32.6 28.3005 32.9491C26.5551 34.1273 25.5078 36.0909 25.5078 38.1855C25.5078 41.6327 28.2569 44.6873 31.5296 44.8618C31.5296 44.8618 31.5296 44.8618 31.5733 44.8618H48.3733H48.4169C52.1696 44.6 55.1369 41.3709 55.1369 37.4873C55.1369 34.04 52.7805 31.0291 49.5514 30.2436ZM48.3733 43.7709H31.5733C28.8678 43.5964 26.5987 41.0655 26.5987 38.1855C26.5987 36.3091 27.6024 34.5636 29.2169 33.6473C29.4351 33.5164 29.5224 33.2545 29.4351 32.9927C29.3042 32.6436 29.2169 32.2509 29.2169 31.8145C29.2169 29.9382 30.7442 28.4109 32.6205 28.4109C33.0133 28.4109 33.406 28.4982 33.7987 28.6291C34.0605 28.7164 34.366 28.5855 34.4533 28.3673C35.6751 25.7927 38.2933 24.1345 41.1296 24.1345C44.9696 24.1345 48.1114 27.0145 48.4605 30.8109C48.5042 31.0291 48.6787 31.2473 48.8969 31.2909C51.8205 31.7709 54.0024 34.4764 54.0024 37.5309C54.0896 40.7164 51.5151 43.5527 48.3733 43.7709ZM40.3442 59C42.1769 59 43.6605 57.6473 43.9224 55.9018H52.0824C52.3878 55.9018 52.606 55.6836 52.606 55.3782C52.606 55.0727 52.3878 54.8545 52.0824 54.8545H43.9224C43.7042 53.2836 42.4387 52.0618 40.8678 51.8V48.1345C40.8678 47.8291 40.6496 47.6109 40.3442 47.6109C40.0387 47.6109 39.8205 47.8291 39.8205 48.1345V51.8C38.2496 52.0182 37.0278 53.2836 36.766 54.8545H28.3878C28.0824 54.8545 27.8642 55.0727 27.8642 55.3782C27.8642 55.6836 28.0824 55.9018 28.3878 55.9018H36.766C37.0278 57.6909 38.5114 59 40.3442 59ZM40.3442 52.8473C41.7405 52.8473 42.8751 53.9818 42.8751 55.3782C42.8751 56.7745 41.7405 57.9091 40.3442 57.9091C38.9478 57.9091 37.8133 56.7745 37.8133 55.3782C37.8133 53.9818 38.9478 52.8473 40.3442 52.8473Z" fill="white" stroke="white"/>
<defs>
<linearGradient id="paint0_linear" x1="40.5078" y1="0" x2="40.5078" y2="80" gradientUnits="userSpaceOnUse">
<stop stop-color="#5383EC"/>
<stop offset="1" stop-color="#1B5CEB"/>
</linearGradient>
</defs>
</svg>
