<svg width="171" height="58" viewBox="0 0 171 58" fill="none" xmlns="http://www.w3.org/2000/svg">
<path d="M59.0625 18.5762V20H51.3633V7.31738H52.9453V18.5762H59.0625ZM67.4297 18.7783C66.6387 19.6514 65.5781 20.0879 64.248 20.0879C62.918 20.0879 61.8574 19.6514 61.0664 18.7783C60.2754 17.9053 59.8799 16.7334 59.8799 15.2627C59.8799 13.792 60.2754 12.6201 61.0664 11.7471C61.8574 10.874 62.918 10.4375 64.248 10.4375C65.5781 10.4375 66.6387 10.874 67.4297 11.7471C68.2207 12.6201 68.6162 13.792 68.6162 15.2627C68.6162 16.7334 68.2207 17.9053 67.4297 18.7783ZM64.248 18.7256C65.1328 18.7256 65.8213 18.4209 66.3135 17.8115C66.8115 17.1963 67.0605 16.3467 67.0605 15.2627C67.0605 14.1729 66.8115 13.3232 66.3135 12.7139C65.8213 12.1045 65.1328 11.7998 64.248 11.7998C63.3633 11.7998 62.6719 12.1074 62.1738 12.7227C61.6816 13.332 61.4355 14.1787 61.4355 15.2627C61.4355 16.3467 61.6846 17.1963 62.1826 17.8115C62.6807 18.4209 63.3691 18.7256 64.248 18.7256ZM77.6865 10.5254L74.1885 20H72.6416L69.1436 10.5254H70.7432L73.3975 18.3477H73.4326L76.0957 10.5254H77.6865ZM82.459 11.7822C81.7148 11.7822 81.0967 12.0283 80.6045 12.5205C80.1182 13.0127 79.8486 13.6602 79.7959 14.4629H85.0078C84.9902 13.6602 84.7471 13.0127 84.2783 12.5205C83.8154 12.0283 83.209 11.7822 82.459 11.7822ZM84.9727 17.293H86.4844C86.3555 18.1074 85.9219 18.7783 85.1836 19.3057C84.4453 19.8271 83.5693 20.0879 82.5557 20.0879C81.2256 20.0879 80.168 19.6572 79.3828 18.7959C78.6035 17.9346 78.2139 16.7686 78.2139 15.2979C78.2139 13.8271 78.6035 12.6494 79.3828 11.7646C80.1621 10.8799 81.1963 10.4375 82.4854 10.4375C83.751 10.4375 84.7529 10.8564 85.4912 11.6943C86.2295 12.5264 86.5986 13.6572 86.5986 15.0869V15.6846H79.7959V15.7725C79.7959 16.6748 80.0508 17.3955 80.5605 17.9346C81.0703 18.4736 81.7471 18.7432 82.5908 18.7432C83.1826 18.7432 83.6924 18.6143 84.1201 18.3564C84.5537 18.0928 84.8379 17.7383 84.9727 17.293ZM91.8018 20.0879C90.6064 20.0879 89.6309 19.6455 88.875 18.7607C88.1191 17.8701 87.7412 16.7041 87.7412 15.2627C87.7412 13.8271 88.1162 12.6641 88.8662 11.7734C89.6162 10.8828 90.583 10.4375 91.7666 10.4375C92.4404 10.4375 93.0381 10.5781 93.5596 10.8594C94.0869 11.1406 94.4971 11.542 94.79 12.0635H94.8252V6.76367H96.3545V20H94.8955V18.4004H94.8691C94.5586 18.9453 94.1396 19.3643 93.6123 19.6572C93.0908 19.9443 92.4873 20.0879 91.8018 20.0879ZM92.0742 11.7998C91.2422 11.7998 90.5713 12.1162 90.0615 12.749C89.5576 13.3818 89.3057 14.2197 89.3057 15.2627C89.3057 16.3115 89.5576 17.1523 90.0615 17.7852C90.5713 18.4121 91.2422 18.7256 92.0742 18.7256C92.8945 18.7256 93.5596 18.4062 94.0693 17.7676C94.5791 17.1289 94.834 16.2939 94.834 15.2627C94.834 14.2314 94.5791 13.3965 94.0693 12.7578C93.5596 12.1191 92.8945 11.7998 92.0742 11.7998ZM107.49 20.0879C106.799 20.0879 106.189 19.9443 105.662 19.6572C105.135 19.3643 104.716 18.9453 104.405 18.4004H104.37V20H102.92V6.76367H104.449V12.0635H104.484C104.783 11.542 105.196 11.1406 105.724 10.8594C106.251 10.5781 106.852 10.4375 107.525 10.4375C108.721 10.4375 109.688 10.8828 110.426 11.7734C111.164 12.6582 111.533 13.8213 111.533 15.2627C111.533 16.71 111.161 17.876 110.417 18.7607C109.679 19.6455 108.703 20.0879 107.49 20.0879ZM107.218 11.7998C106.392 11.7998 105.721 12.1221 105.205 12.7666C104.695 13.4053 104.44 14.2373 104.44 15.2627C104.44 16.2939 104.695 17.1289 105.205 17.7676C105.721 18.4062 106.392 18.7256 107.218 18.7256C108.05 18.7256 108.715 18.4121 109.213 17.7852C109.717 17.1582 109.969 16.3174 109.969 15.2627C109.969 14.2139 109.717 13.376 109.213 12.749C108.715 12.1162 108.05 11.7998 107.218 11.7998ZM113.695 23.4365C113.467 23.4365 113.244 23.416 113.027 23.375V22.083C113.203 22.1182 113.411 22.1357 113.651 22.1357C114.091 22.1357 114.442 22.0156 114.706 21.7754C114.97 21.541 115.198 21.1396 115.392 20.5713L115.576 20.0088L112.069 10.5254H113.695L116.35 18.4443H116.385L119.039 10.5254H120.647L116.938 20.5801C116.534 21.6758 116.101 22.4258 115.638 22.8301C115.181 23.2344 114.533 23.4365 113.695 23.4365Z" fill="white"/>
<path d="M38.543 51V37.3359H38.4727L34.1602 40.3125V37.125L38.5312 34.0898H42.0469V51H38.543ZM69.1172 34.0898V51H65.9648V39.5859H65.8711L61.2773 50.8359H59.0508L54.457 39.5859H54.3633V51H51.2109V34.0898H55.3125L60.1172 46.0781H60.2109L65.0156 34.0898H69.1172ZM88.8984 38.0977V51H85.5938V48.668H85.5234C85.1953 49.4805 84.6797 50.1055 83.9766 50.543C83.2812 50.9727 82.4453 51.1875 81.4688 51.1875C80.0547 51.1875 78.918 50.7578 78.0586 49.8984C77.207 49.0312 76.7812 47.8555 76.7812 46.3711V38.0977H80.2031V45.6562C80.2031 46.5156 80.4297 47.1797 80.8828 47.6484C81.3359 48.1094 81.9648 48.3398 82.7695 48.3398C83.5742 48.3398 84.2266 48.0742 84.7266 47.543C85.2266 47.0117 85.4766 46.3125 85.4766 45.4453V38.0977H88.8984ZM91.0078 41.8945C91.0078 40.6836 91.5 39.7109 92.4844 38.9766C93.4688 38.2422 94.7773 37.875 96.4102 37.875C98.0039 37.875 99.2891 38.25 100.266 39C101.242 39.7422 101.742 40.7305 101.766 41.9648H98.6016C98.5625 41.457 98.3438 41.0547 97.9453 40.7578C97.5469 40.4531 97.0195 40.3008 96.3633 40.3008C95.7461 40.3008 95.25 40.4297 94.875 40.6875C94.5 40.9375 94.3125 41.2695 94.3125 41.6836C94.3125 42.3164 94.8867 42.7656 96.0352 43.0312L98.4609 43.5586C99.7578 43.8555 100.684 44.2734 101.238 44.8125C101.801 45.3516 102.082 46.1016 102.082 47.0625C102.082 48.3125 101.559 49.3203 100.512 50.0859C99.4648 50.8438 98.0938 51.2227 96.3984 51.2227C94.7188 51.2227 93.3672 50.8516 92.3438 50.1094C91.3281 49.3594 90.7773 48.3555 90.6914 47.0977H94.0312C94.1172 47.6445 94.3711 48.0664 94.793 48.3633C95.2148 48.6523 95.7812 48.7969 96.4922 48.7969C97.1719 48.7969 97.707 48.6758 98.0977 48.4336C98.4883 48.1836 98.6836 47.8477 98.6836 47.4258C98.6836 47.0898 98.5586 46.8242 98.3086 46.6289C98.0664 46.4336 97.6523 46.2656 97.0664 46.125L94.6875 45.5859C92.2344 45.0312 91.0078 43.8008 91.0078 41.8945ZM109.617 40.4297C108.836 40.4297 108.184 40.6875 107.66 41.2031C107.145 41.7188 106.855 42.3906 106.793 43.2188H112.359C112.328 42.375 112.062 41.6992 111.562 41.1914C111.062 40.6836 110.414 40.4297 109.617 40.4297ZM112.406 47.0625H115.559C115.371 48.3125 114.742 49.3203 113.672 50.0859C112.602 50.8438 111.281 51.2227 109.711 51.2227C107.75 51.2227 106.203 50.6328 105.07 49.4531C103.945 48.2734 103.383 46.6562 103.383 44.6016C103.383 42.5469 103.941 40.9141 105.059 39.7031C106.184 38.4844 107.691 37.875 109.582 37.875C111.441 37.875 112.918 38.4531 114.012 39.6094C115.113 40.7656 115.664 42.3242 115.664 44.2852V45.3398H106.758V45.5508C106.758 46.4805 107.035 47.2344 107.59 47.8125C108.145 48.3828 108.871 48.668 109.77 48.668C110.418 48.668 110.977 48.5273 111.445 48.2461C111.922 47.957 112.242 47.5625 112.406 47.0625ZM117.504 51V38.0977H120.809V40.4062H120.879C121.098 39.6172 121.473 39.0117 122.004 38.5898C122.535 38.1602 123.184 37.9453 123.949 37.9453C124.332 37.9453 124.652 37.9883 124.91 38.0742V41.1094C124.605 40.9688 124.195 40.8984 123.68 40.8984C122.812 40.8984 122.137 41.1523 121.652 41.6602C121.168 42.168 120.926 42.875 120.926 43.7812V51H117.504ZM126.188 41.8945C126.188 40.6836 126.68 39.7109 127.664 38.9766C128.648 38.2422 129.957 37.875 131.59 37.875C133.184 37.875 134.469 38.25 135.445 39C136.422 39.7422 136.922 40.7305 136.945 41.9648H133.781C133.742 41.457 133.523 41.0547 133.125 40.7578C132.727 40.4531 132.199 40.3008 131.543 40.3008C130.926 40.3008 130.43 40.4297 130.055 40.6875C129.68 40.9375 129.492 41.2695 129.492 41.6836C129.492 42.3164 130.066 42.7656 131.215 43.0312L133.641 43.5586C134.938 43.8555 135.863 44.2734 136.418 44.8125C136.98 45.3516 137.262 46.1016 137.262 47.0625C137.262 48.3125 136.738 49.3203 135.691 50.0859C134.645 50.8438 133.273 51.2227 131.578 51.2227C129.898 51.2227 128.547 50.8516 127.523 50.1094C126.508 49.3594 125.957 48.3555 125.871 47.0977H129.211C129.297 47.6445 129.551 48.0664 129.973 48.3633C130.395 48.6523 130.961 48.7969 131.672 48.7969C132.352 48.7969 132.887 48.6758 133.277 48.4336C133.668 48.1836 133.863 47.8477 133.863 47.4258C133.863 47.0898 133.738 46.8242 133.488 46.6289C133.246 46.4336 132.832 46.2656 132.246 46.125L129.867 45.5859C127.414 45.0312 126.188 43.8008 126.188 41.8945Z" fill="white"/>
<path d="M166.309 41.2845C164.41 42.6074 164.109 44.0482 164.056 44.4542C163.755 44.6376 163.48 44.7948 163.218 44.9257C163.624 44.2577 164.004 43.5767 164.344 42.8825C164.921 41.6906 165.431 40.4724 165.851 39.215C165.903 39.0841 165.942 38.94 165.982 38.7959C166.309 37.7612 166.794 36.7919 167.422 35.9144C167.462 35.862 167.501 35.7965 167.553 35.7441C172.871 32.8363 170.435 26.8899 170.435 26.8899C170.513 28.1997 169.256 29.1951 167.946 31.592C166.846 33.6222 167.213 35.0499 167.344 35.4297C167.069 35.8489 166.82 36.2156 166.597 36.5169C166.689 36.137 166.767 35.7572 166.833 35.3642C167.082 34.0676 167.226 32.7578 167.291 31.448L167.317 30.9502C167.331 30.78 167.331 30.6228 167.331 30.4525V29.4702C167.318 29.1427 167.304 28.8153 167.291 28.4878C167.278 28.3176 167.278 28.1604 167.265 27.9901L167.226 27.5055C167.2 27.178 167.213 26.8506 167.278 26.5362L167.658 24.6632C171.535 20.0004 167.082 15.3768 167.082 15.3768C167.632 16.5687 166.833 17.9571 166.492 20.6684C166.204 22.9605 167.082 24.1524 167.344 24.4668C167.239 25.0169 167.121 25.4884 167.016 25.8682L166.977 25.567C166.938 25.2395 166.859 24.9252 166.807 24.5977L166.715 24.1131C166.689 23.9559 166.65 23.7857 166.61 23.6285C166.453 22.9867 166.309 22.358 166.099 21.7293L165.955 21.2578L165.89 21.022L165.811 20.7862L165.484 19.8563C165.274 19.3193 165.052 18.7823 164.816 18.2583C164.397 17.3153 164.135 16.3067 164.082 15.272C164.069 15.0362 164.056 14.8005 164.03 14.5647C166.112 8.86712 160.376 6.01177 160.376 6.01177C161.292 6.94172 161.004 8.52657 161.594 11.1855C162.105 13.4514 163.323 14.2766 163.663 14.473C163.781 15.2458 163.833 15.8876 163.873 16.346C163.86 16.3329 163.86 16.3198 163.847 16.2936L163.611 15.8614C163.532 15.7173 163.441 15.5864 163.362 15.4423L162.851 14.604L162.301 13.7919C162.209 13.661 162.118 13.5169 162.026 13.3859L161.738 12.993C161.437 12.5738 161.122 12.1678 160.795 11.7749C160.336 11.1986 159.708 10.3472 159.157 9.74468C158.896 9.45653 158.673 9.14218 158.516 8.80163C156.132 3.75892 150.29 5.1866 150.29 5.1866C151.6 5.26519 152.438 6.65357 154.652 8.23842C156.394 9.49582 157.782 9.41723 158.293 9.32555C158.359 9.35174 158.424 9.36484 158.489 9.39104L159.157 10.0852C160.035 11.0414 160.86 12.0368 161.594 13.1109L161.869 13.5038C161.96 13.6348 162.039 13.7788 162.131 13.9098L162.655 14.735L162.877 15.1148C162.301 14.6171 161.712 14.198 161.135 13.8181C157.992 8.63136 152.163 11.3426 152.163 11.3426C153.473 11.1986 154.521 12.4167 156.97 13.6086C159.053 14.6171 160.454 14.1849 160.834 14.0408C161.672 14.5254 162.366 15.0101 162.759 15.2982C163.008 15.4816 163.231 15.7173 163.362 15.9924L163.585 16.4246C164.187 17.5641 164.672 18.7692 165.117 19.9873L165.418 20.9041L165.497 21.1399L165.562 21.3757L165.693 21.8472C165.877 22.4628 166.008 23.1046 166.139 23.7333C166.178 23.8905 166.204 24.0476 166.23 24.2048V24.2179C165.837 23.6154 165.431 23.0653 164.999 22.5676C163.506 16.6866 157.153 17.5772 157.153 17.5772C158.437 17.8261 159.092 19.3062 161.083 21.153C162.773 22.7378 164.253 22.7247 164.646 22.6985C165.104 23.1963 165.471 23.6416 165.746 23.9821C166.126 24.4537 166.388 25.03 166.44 25.6456C166.44 25.6456 166.44 25.6456 166.44 25.6587L166.545 26.6148L166.571 26.8506L166.584 27.0863L166.61 27.571L166.636 28.0556C166.649 28.2128 166.649 28.383 166.649 28.5402C166.649 28.8677 166.663 29.182 166.663 29.5095L166.636 30.4787C166.636 30.6359 166.623 30.7931 166.61 30.9633L166.571 31.448C166.519 32.1422 166.44 32.8363 166.348 33.5174C166.217 32.9411 166.047 32.391 165.877 31.8671C166.584 25.842 160.323 24.4013 160.323 24.4013C161.437 25.0955 161.528 26.7065 162.72 29.1427C163.742 31.2253 165.117 31.7492 165.51 31.854C165.654 32.2338 165.785 32.5744 165.89 32.8756C166.152 33.6222 166.217 34.4474 166.034 35.2202V35.2333C165.759 36.4907 165.418 37.7219 164.973 38.9269C164.528 40.1319 164.017 41.2976 163.427 42.4371C163.257 42.7646 163.074 43.092 162.877 43.4064C162.982 42.7253 163.048 42.0704 163.074 41.4417C165.929 36.0977 160.651 32.4565 160.651 32.4565C161.437 33.5043 160.926 35.0368 161.135 37.7481C161.319 40.0533 162.406 41.0488 162.733 41.2976C162.733 41.3893 162.733 41.4679 162.733 41.5596C162.72 43.0265 162.275 44.4673 161.423 45.6592L161.41 45.6723C160.677 46.7202 159.852 47.6894 158.974 48.6194C158.751 48.842 158.542 49.0909 158.306 49.3005L157.612 49.9553C157.599 49.9422 157.599 49.9553 157.599 49.9422C157.808 49.5755 157.992 49.1957 158.162 48.8289C162.877 45.0043 159.406 39.608 159.406 39.608C159.721 40.8785 158.66 42.0966 157.808 44.6769C157.088 46.8773 157.704 48.2133 157.913 48.567C157.769 48.8944 157.638 49.2088 157.52 49.4707C157.219 50.1387 156.761 50.7281 156.184 51.1735C156.184 51.1735 156.184 51.1735 156.171 51.1866C155.176 51.9724 154.141 52.719 153.054 53.3608C152.412 53.7407 151.77 54.0943 151.102 54.4217C151.377 54.1336 151.639 53.8454 151.862 53.5704C156.368 51.4878 154.717 46.4975 154.717 46.4975C154.704 47.5715 153.617 48.3181 152.425 50.2042C151.404 51.8022 151.626 52.9941 151.718 53.3084C151.574 53.5049 151.43 53.6883 151.299 53.8454C150.866 54.3825 150.316 54.8147 149.675 55.0897C149.675 55.0897 149.675 55.0897 149.661 55.0897C148.496 55.5744 147.291 55.9935 146.086 56.334H146.073C145.745 56.4257 145.496 56.727 145.496 57.0675C145.483 57.6569 146.02 58.0237 146.531 57.8665C147.815 57.4736 149.059 57.002 150.277 56.465C151.495 55.9149 152.661 55.2731 153.787 54.5658C154.468 54.1467 155.123 53.6883 155.765 53.2036C156.63 52.5487 157.664 52.1558 158.751 52.0641C164.41 54.2384 167.357 48.5408 167.357 48.5408C166.414 49.4445 164.829 49.1302 162.17 49.6803C159.904 50.1518 159.053 51.3568 158.856 51.7105C158.306 51.776 157.835 51.8284 157.429 51.8545C157.782 51.5402 158.136 51.2127 158.489 50.8853L159.184 50.178C159.419 49.9423 159.629 49.6934 159.865 49.4445C160.742 48.4491 161.581 47.4143 162.314 46.3141C162.327 46.2879 162.34 46.2748 162.353 46.2486C162.72 45.7116 163.205 45.2794 163.781 44.9781C163.873 44.9257 163.964 44.8864 164.056 44.8341C170.12 44.6114 170.592 38.2065 170.592 38.2065C170.12 39.3984 168.536 39.7259 166.309 41.2845Z" fill="white"/>
<path d="M4.68283 41.2845C6.58203 42.6074 6.8833 44.0482 6.93569 44.4542C7.23694 44.6376 7.51198 44.7948 7.77394 44.9257C7.36791 44.2577 6.98807 43.5767 6.64752 42.8825C6.07121 41.6906 5.5604 40.4724 5.14126 39.215C5.08887 39.0841 5.04958 38.94 5.01028 38.7959C4.68283 37.7612 4.19821 36.7919 3.56951 35.9144C3.53022 35.862 3.49092 35.7965 3.43853 35.7441C-1.87923 32.8363 0.556984 26.8899 0.556984 26.8899C0.478396 28.1997 1.7358 29.1951 3.04559 31.592C4.14582 33.6222 3.77907 35.0499 3.64809 35.4297C3.92315 35.8489 4.17202 36.2156 4.39469 36.5169C4.303 36.137 4.22441 35.7572 4.15892 35.3642C3.91006 34.0676 3.76598 32.7578 3.70049 31.448L3.6743 30.9502C3.6612 30.78 3.6612 30.6228 3.6612 30.4525V29.4702C3.6743 29.1427 3.68739 28.8153 3.70049 28.4878C3.71359 28.3176 3.7136 28.1604 3.72669 27.9901L3.76598 27.5055C3.79217 27.178 3.77907 26.8506 3.71358 26.5362L3.33376 24.6632C-0.543234 20.0004 3.91005 15.3768 3.91005 15.3768C3.35994 16.5687 4.15891 17.9571 4.49946 20.6684C4.78761 22.9605 3.91005 24.1524 3.64809 24.4668C3.75288 25.0169 3.87076 25.4884 3.97554 25.8682L4.01484 25.567C4.05414 25.2395 4.13273 24.9252 4.18512 24.5977L4.2768 24.1131C4.303 23.9559 4.3423 23.7857 4.38159 23.6285C4.53877 22.9867 4.68283 22.358 4.8924 21.7293L5.03649 21.2578L5.10198 21.022L5.18056 20.7862L5.50801 19.8563C5.71758 19.3193 5.94024 18.7823 6.176 18.2583C6.59514 17.3153 6.85709 16.3067 6.90948 15.272C6.92258 15.0362 6.93568 14.8005 6.96188 14.5647C4.87931 8.86712 10.6162 6.01177 10.6162 6.01177C9.69935 6.94172 9.9875 8.52657 9.39809 11.1855C8.88727 13.4514 7.66917 14.2766 7.32863 14.473C7.21074 15.2458 7.15834 15.8876 7.11905 16.346C7.13214 16.3329 7.13215 16.3198 7.14525 16.2936L7.381 15.8614C7.45959 15.7173 7.55128 15.5864 7.62987 15.4423L8.14069 14.604L8.6908 13.7919C8.78249 13.661 8.87418 13.5169 8.96587 13.3859L9.25402 12.993C9.55527 12.5738 9.86961 12.1678 10.1971 11.7749C10.6555 11.1986 11.2842 10.3472 11.8343 9.74468C12.0963 9.45653 12.3189 9.14218 12.4761 8.80163C14.8599 3.75892 20.7016 5.1866 20.7016 5.1866C19.3918 5.26519 18.5535 6.65357 16.34 8.23842C14.598 9.49582 13.2096 9.41723 12.6988 9.32555C12.6333 9.35174 12.5678 9.36484 12.5023 9.39104L11.8343 10.0852C10.9567 11.0414 10.1316 12.0368 9.39809 13.1109L9.12304 13.5038C9.03135 13.6348 8.95276 13.7788 8.86108 13.9098L8.33716 14.735L8.1145 15.1148C8.69081 14.6171 9.28021 14.198 9.85652 13.8181C13 8.63136 18.8286 11.3426 18.8286 11.3426C17.5188 11.1986 16.471 12.4167 14.0217 13.6086C11.9391 14.6171 10.5376 14.1849 10.1578 14.0408C9.31951 14.5254 8.62531 15.0101 8.23237 15.2982C7.98351 15.4816 7.76085 15.7173 7.62987 15.9924L7.40721 16.4246C6.80471 17.5641 6.32007 18.7692 5.87474 19.9873L5.5735 20.9041L5.49492 21.1399L5.42943 21.3757L5.29845 21.8472C5.11507 22.4628 4.98409 23.1046 4.85311 23.7333C4.81382 23.8905 4.78761 24.0476 4.76142 24.2048V24.2179C5.15436 23.6154 5.5604 23.0653 5.99263 22.5676C7.48579 16.6866 13.8383 17.5772 13.8383 17.5772C12.5547 17.8261 11.8998 19.3062 9.90891 21.153C8.21928 22.7378 6.73922 22.7247 6.34628 22.6985C5.88785 23.1963 5.52111 23.6416 5.24605 23.9821C4.86621 24.4537 4.60425 25.03 4.55185 25.6456C4.55185 25.6456 4.55185 25.6456 4.55185 25.6587L4.44708 26.6148L4.42087 26.8506L4.40778 27.0863L4.38159 27.571L4.35538 28.0556C4.34229 28.2128 4.34229 28.383 4.34229 28.5402C4.34229 28.8677 4.3292 29.182 4.3292 29.5095L4.35538 30.4787C4.35538 30.6359 4.36849 30.7931 4.38159 30.9633L4.42087 31.448C4.47327 32.1422 4.55186 32.8363 4.64355 33.5174C4.77453 32.9411 4.9448 32.391 5.11507 31.8671C4.40778 25.842 10.6686 24.4013 10.6686 24.4013C9.55528 25.0955 9.46358 26.7065 8.27167 29.1427C7.25003 31.2253 5.87474 31.7492 5.4818 31.854C5.33773 32.2338 5.20676 32.5744 5.10198 32.8756C4.84002 33.6222 4.77452 34.4474 4.95789 35.2202V35.2333C5.23294 36.4907 5.5735 37.7219 6.01883 38.9269C6.46416 40.1319 6.97497 41.2976 7.56438 42.4371C7.73465 42.7646 7.91803 43.092 8.1145 43.4064C8.00972 42.7253 7.94423 42.0704 7.91803 41.4417C5.06268 36.0977 10.3412 32.4565 10.3412 32.4565C9.55528 33.5043 10.0661 35.0368 9.85652 37.7481C9.67315 40.0533 8.58602 41.0488 8.25858 41.2976C8.25858 41.3893 8.25858 41.4679 8.25858 41.5596C8.27167 43.0265 8.717 44.4673 9.56837 45.6592L9.58146 45.6723C10.3149 46.7202 11.1401 47.6894 12.0177 48.6194C12.2403 48.842 12.4499 49.0909 12.6857 49.3005L13.3799 49.9553C13.393 49.9422 13.393 49.9553 13.393 49.9422C13.1834 49.5755 13 49.1957 12.8298 48.8289C8.1145 45.0043 11.5855 39.608 11.5855 39.608C11.2711 40.8785 12.332 42.0966 13.1834 44.6769C13.9038 46.8773 13.2882 48.2133 13.0786 48.567C13.2227 48.8944 13.3537 49.2088 13.4715 49.4707C13.7728 50.1387 14.2312 50.7281 14.8075 51.1735C14.8075 51.1735 14.8075 51.1735 14.8206 51.1866C15.8161 51.9724 16.8508 52.719 17.938 53.3608C18.5798 53.7407 19.2215 54.0943 19.8895 54.4217C19.6145 54.1336 19.3525 53.8454 19.1299 53.5704C14.6242 51.4878 16.2745 46.4975 16.2745 46.4975C16.2876 47.5715 17.3747 48.3181 18.5666 50.2042C19.5883 51.8022 19.3656 52.9941 19.2739 53.3084C19.418 53.5049 19.5621 53.6883 19.6931 53.8454C20.1253 54.3825 20.6754 54.8147 21.3172 55.0897C21.3172 55.0897 21.3172 55.0897 21.3303 55.0897C22.496 55.5744 23.701 55.9935 24.906 56.334H24.9191C25.2466 56.4257 25.4955 56.727 25.4955 57.0675C25.5086 57.6569 24.9715 58.0237 24.4607 57.8665C23.1771 57.4736 21.9328 57.002 20.7147 56.465C19.4966 55.9149 18.3309 55.2731 17.2045 54.5658C16.5234 54.1467 15.8685 53.6883 15.2267 53.2036C14.3622 52.5487 13.3275 52.1558 12.2404 52.0641C6.58204 54.2384 3.635 48.5408 3.635 48.5408C4.57805 49.4445 6.1629 49.1302 8.82178 49.6803C11.0877 50.1518 11.9391 51.3568 12.1356 51.7105C12.6857 51.776 13.1572 51.8284 13.5632 51.8545C13.2096 51.5402 12.856 51.2127 12.5023 50.8853L11.8081 50.178C11.5724 49.9423 11.3628 49.6934 11.127 49.4445C10.2495 48.4491 9.41119 47.4143 8.6777 46.3141C8.66461 46.2879 8.65152 46.2748 8.63842 46.2486C8.27168 45.7116 7.78705 45.2794 7.21074 44.9781C7.11906 44.9257 7.02737 44.8864 6.93569 44.8341C0.871344 44.6114 0.399815 38.2065 0.399815 38.2065C0.871341 39.3984 2.44309 39.7259 4.68283 41.2845Z" fill="white"/>
</svg>
