<svg width="20" height="20" viewBox="0 0 20 20" fill="none" xmlns="http://www.w3.org/2000/svg">
<path d="M19.2836 7.27584L13.3328 6.411L10.6727 1.01803C10.6 0.87037 10.4805 0.750839 10.3328 0.678183C9.9625 0.49537 9.5125 0.647714 9.32734 1.01803L6.66719 6.411L0.716405 7.27584C0.552342 7.29928 0.402342 7.37662 0.287498 7.49381C0.148658 7.63651 0.0721514 7.8285 0.0747883 8.02758C0.0774251 8.22666 0.15899 8.41655 0.301561 8.55553L4.60703 12.7532L3.58984 18.6805C3.56599 18.8184 3.58125 18.9602 3.63389 19.0899C3.68653 19.2195 3.77444 19.3318 3.88766 19.4141C4.00088 19.4963 4.13487 19.5452 4.27445 19.5551C4.41403 19.5651 4.5536 19.5357 4.67734 19.4704L10 16.6719L15.3227 19.4704C15.468 19.5477 15.6367 19.5735 15.7984 19.5454C16.2063 19.4751 16.4805 19.0883 16.4102 18.6805L15.393 12.7532L19.6984 8.55553C19.8156 8.44068 19.893 8.29068 19.9164 8.12662C19.9797 7.71646 19.6938 7.33678 19.2836 7.27584Z" fill="#FED32C"/>
</svg>
